<svg width="84" height="84" viewBox="0 0 84 84" fill="none" xmlns="http://www.w3.org/2000/svg">
<g clip-path="url(#clip0_2_2185)">
<rect x="0.25" width="80" height="80" rx="40" fill="#D4D6DD"/>
<path d="M10.25 65.7625C10.25 56.9259 17.4134 49.7625 26.25 49.7625H54.25C63.0866 49.7625 70.25 56.9259 70.25 65.7625V93.7625C70.25 102.599 63.0866 109.762 54.25 109.762H26.25C17.4134 109.762 10.25 102.599 10.25 93.7625V65.7625Z" fill="#3B606A"/>
<circle cx="40.25" cy="28" r="16" fill="#3B606A"/>
</g>
<rect x="56.75" y="57" width="26" height="26" rx="13" fill="#3B606A"/>
<rect x="56.75" y="57" width="26" height="26" rx="13" stroke="white" stroke-width="2"/>
<mask id="mask0_2_2185" style="mask-type:alpha" maskUnits="userSpaceOnUse" x="65" y="65" width="9" height="10">
<path d="M68.1424 73.5868L72.3091 69.4201L70.33 67.4409L66.1632 71.6077C66.1059 71.6651 66.0651 71.737 66.0453 71.8157L65.5835 74.1666L67.9339 73.7048C68.0128 73.685 68.085 73.6442 68.1424 73.5868ZM73.6543 68.0749C73.8224 67.9068 73.9168 67.6787 73.9168 67.4409C73.9168 67.2032 73.8224 66.9751 73.6543 66.8069L72.9431 66.0958C72.775 65.9277 72.5469 65.8333 72.3091 65.8333C72.0714 65.8333 71.8433 65.9277 71.6751 66.0958L70.964 66.8069L72.9431 68.7861L73.6543 68.0749Z" fill="#006FFD"/>
</mask>
<g mask="url(#mask0_2_2185)">
<rect x="64.75" y="65" width="10" height="10" fill="white"/>
</g>
<defs>
<clipPath id="clip0_2_2185">
<rect x="0.25" width="80" height="80" rx="40" fill="white"/>
</clipPath>
</defs>
</svg>
