<svg width="21" height="20" viewBox="0 0 21 20" fill="none" xmlns="http://www.w3.org/2000/svg">
<mask id="mask0_2_2717" style="mask-type:alpha" maskUnits="userSpaceOnUse" x="2" y="2" width="17" height="16">
<path fill-rule="evenodd" clip-rule="evenodd" d="M2.0415 3.75C2.0415 3.41848 2.16693 3.10054 2.39019 2.86612C2.61344 2.6317 2.91625 2.5 3.23198 2.5H17.5177C17.8334 2.5 18.1362 2.6317 18.3595 2.86612C18.5827 3.10054 18.7082 3.41848 18.7082 3.75C18.7082 4.08152 18.5827 4.39946 18.3595 4.63388C18.1362 4.8683 17.8334 5 17.5177 5H3.23198C2.91625 5 2.61344 4.8683 2.39019 4.63388C2.16693 4.39946 2.0415 4.08152 2.0415 3.75ZM2.0415 10C2.0415 9.66848 2.16693 9.35054 2.39019 9.11612C2.61344 8.8817 2.91625 8.75 3.23198 8.75H17.5177C17.8334 8.75 18.1362 8.8817 18.3595 9.11612C18.5827 9.35054 18.7082 9.66848 18.7082 10C18.7082 10.3315 18.5827 10.6495 18.3595 10.8839C18.1362 11.1183 17.8334 11.25 17.5177 11.25H3.23198C2.91625 11.25 2.61344 11.1183 2.39019 10.8839C2.16693 10.6495 2.0415 10.3315 2.0415 10ZM2.0415 16.25C2.0415 15.9185 2.16693 15.6005 2.39019 15.3661C2.61344 15.1317 2.91625 15 3.23198 15H17.5177C17.8334 15 18.1362 15.1317 18.3595 15.3661C18.5827 15.6005 18.7082 15.9185 18.7082 16.25C18.7082 16.5815 18.5827 16.8995 18.3595 17.1339C18.1362 17.3683 17.8334 17.5 17.5177 17.5H3.23198C2.91625 17.5 2.61344 17.3683 2.39019 17.1339C2.16693 16.8995 2.0415 16.5815 2.0415 16.25Z" fill="#006FFD"/>
</mask>
<g mask="url(#mask0_2_2717)">
<rect x="0.375" width="20" height="20" fill="#3B606A"/>
</g>
</svg>
