<svg width="40" height="40" viewBox="0 0 40 40" fill="none" xmlns="http://www.w3.org/2000/svg">
<path fill-rule="evenodd" clip-rule="evenodd" d="M23.3335 36.6666H16.6668C10.3818 36.6666 7.2385 36.6666 5.28683 34.7132C3.33516 32.7599 3.3335 29.6183 3.3335 23.3333V16.6666C3.3335 10.3816 3.3335 7.23825 5.28683 5.28659C7.24016 3.33492 10.3985 3.33325 16.7168 3.33325C17.7268 3.33325 18.5352 3.33325 19.2168 3.36159C19.1946 3.49492 19.1835 3.63047 19.1835 3.76825L19.1668 8.49158C19.1668 10.3199 19.1668 11.9366 19.3418 13.2383C19.5318 14.6499 19.9668 16.0616 21.1202 17.2149C22.2702 18.3649 23.6835 18.8016 25.0952 18.9916C26.3968 19.1666 28.0135 19.1666 29.8418 19.1666H36.5952C36.6668 20.0566 36.6668 21.1499 36.6668 22.6049V23.3333C36.6668 29.6183 36.6668 32.7616 34.7135 34.7132C32.7602 36.6649 29.6185 36.6666 23.3335 36.6666Z" fill="#3B606A"/>
<path d="M32.2532 12.6949L25.6532 6.75661C23.7748 5.06494 22.8365 4.21828 21.6815 3.77661L21.6665 8.33328C21.6665 12.2616 21.6665 14.2266 22.8865 15.4466C24.1065 16.6666 26.0715 16.6666 29.9998 16.6666H35.9665C35.3632 15.4933 34.2798 14.5199 32.2532 12.6949Z" fill="#3B606A"/>
</svg>
