<svg width="21" height="20" viewBox="0 0 21 20" fill="none" xmlns="http://www.w3.org/2000/svg">
<path d="M5.87516 18.3333C5.41683 18.3333 5.02461 18.1702 4.6985 17.8441C4.37238 17.518 4.20905 17.1255 4.2085 16.6666V8.33325C4.2085 7.87492 4.37183 7.4827 4.6985 7.15659C5.02516 6.83048 5.41738 6.66714 5.87516 6.66659H6.7085V4.99992C6.7085 3.84714 7.11489 2.86464 7.92766 2.05242C8.74044 1.2402 9.72294 0.833808 10.8752 0.833253C12.0274 0.832697 13.0102 1.23909 13.8235 2.05242C14.6368 2.86575 15.0429 3.84825 15.0418 4.99992V6.66659H15.8752C16.3335 6.66659 16.726 6.82992 17.0527 7.15659C17.3793 7.48325 17.5424 7.87548 17.5418 8.33325V16.6666C17.5418 17.1249 17.3788 17.5174 17.0527 17.8441C16.7266 18.1708 16.3341 18.3338 15.8752 18.3333H5.87516ZM10.8752 14.1666C11.3335 14.1666 11.726 14.0035 12.0527 13.6774C12.3793 13.3513 12.5424 12.9588 12.5418 12.4999C12.5413 12.041 12.3782 11.6488 12.0527 11.3233C11.7271 10.9977 11.3346 10.8344 10.8752 10.8333C10.4157 10.8321 10.0235 10.9955 9.6985 11.3233C9.3735 11.651 9.21016 12.0433 9.2085 12.4999C9.20683 12.9566 9.37016 13.3491 9.6985 13.6774C10.0268 14.0058 10.4191 14.1688 10.8752 14.1666ZM8.37516 6.66659H13.3752V4.99992C13.3752 4.30547 13.1321 3.7152 12.646 3.22909C12.1599 2.74297 11.5696 2.49992 10.8752 2.49992C10.1807 2.49992 9.59044 2.74297 9.10433 3.22909C8.61822 3.7152 8.37516 4.30547 8.37516 4.99992V6.66659Z" fill="#D4D6DD"/>
</svg>
