<svg width="21" height="20" viewBox="0 0 21 20" fill="none" xmlns="http://www.w3.org/2000/svg">
<path d="M11.7917 10.8333C11.9958 10.8334 12.1928 10.9083 12.3453 11.0439C12.4978 11.1796 12.5953 11.3665 12.6192 11.5692L12.625 11.6667V16.6667C12.6248 16.8791 12.5434 17.0834 12.3976 17.2378C12.2518 17.3923 12.0525 17.4852 11.8405 17.4976C11.6285 17.5101 11.4197 17.4411 11.2568 17.3048C11.0939 17.1685 10.9893 16.9751 10.9642 16.7642L10.9583 16.6667V11.6667C10.9583 11.4457 11.0461 11.2337 11.2024 11.0774C11.3587 10.9211 11.5707 10.8333 11.7917 10.8333ZM14.2917 14.5833C14.5127 14.5833 14.7246 14.6711 14.8809 14.8274C15.0372 14.9837 15.125 15.1957 15.125 15.4167V16.6667C15.125 16.8877 15.0372 17.0996 14.8809 17.2559C14.7246 17.4122 14.5127 17.5 14.2917 17.5C14.0707 17.5 13.8587 17.4122 13.7024 17.2559C13.5461 17.0996 13.4583 16.8877 13.4583 16.6667V15.4167C13.4583 15.1957 13.5461 14.9837 13.7024 14.8274C13.8587 14.6711 14.0707 14.5833 14.2917 14.5833ZM16.7917 10.8333C16.9958 10.8334 17.1928 10.9083 17.3453 11.0439C17.4978 11.1796 17.5953 11.3665 17.6192 11.5692L17.625 11.6667V16.6667C17.6248 16.8791 17.5434 17.0834 17.3976 17.2378C17.2518 17.3923 17.0525 17.4852 16.8405 17.4976C16.6285 17.5101 16.4197 17.4411 16.2568 17.3048C16.0939 17.1685 15.9893 16.9751 15.9642 16.7642L15.9583 16.6667V11.6667C15.9583 11.4457 16.0461 11.2337 16.2024 11.0774C16.3587 10.9211 16.5707 10.8333 16.7917 10.8333ZM7.625 10.8333C8.06703 10.8333 8.49095 11.0089 8.80351 11.3215C9.11607 11.634 9.29167 12.058 9.29167 12.5V15.8333C9.29167 16.2754 9.11607 16.6993 8.80351 17.0118C8.49095 17.3244 8.06703 17.5 7.625 17.5H4.29167C3.84964 17.5 3.42572 17.3244 3.11316 17.0118C2.80059 16.6993 2.625 16.2754 2.625 15.8333V12.5C2.625 12.058 2.80059 11.634 3.11316 11.3215C3.42572 11.0089 3.84964 10.8333 4.29167 10.8333H7.625ZM14.2917 10.8333C14.4958 10.8334 14.6928 10.9083 14.8453 11.0439C14.9978 11.1796 15.0953 11.3665 15.1192 11.5692L15.125 11.6667V12.9167C15.1248 13.1291 15.0434 13.3334 14.8976 13.4878C14.7518 13.6423 14.5525 13.7352 14.3405 13.7476C14.1285 13.7601 13.9197 13.6911 13.7568 13.5548C13.5939 13.4185 13.4893 13.2251 13.4642 13.0142L13.4583 12.9167V11.6667C13.4583 11.4457 13.5461 11.2337 13.7024 11.0774C13.8587 10.9211 14.0707 10.8333 14.2917 10.8333ZM7.625 2.5C8.06703 2.5 8.49095 2.67559 8.80351 2.98816C9.11607 3.30072 9.29167 3.72464 9.29167 4.16667V7.5C9.29167 7.94203 9.11607 8.36595 8.80351 8.67851C8.49095 8.99107 8.06703 9.16667 7.625 9.16667H4.29167C3.84964 9.16667 3.42572 8.99107 3.11316 8.67851C2.80059 8.36595 2.625 7.94203 2.625 7.5V4.16667C2.625 3.72464 2.80059 3.30072 3.11316 2.98816C3.42572 2.67559 3.84964 2.5 4.29167 2.5H7.625ZM15.9583 2.5C16.4004 2.5 16.8243 2.67559 17.1368 2.98816C17.4494 3.30072 17.625 3.72464 17.625 4.16667V7.5C17.625 7.94203 17.4494 8.36595 17.1368 8.67851C16.8243 8.99107 16.4004 9.16667 15.9583 9.16667H12.625C12.183 9.16667 11.759 8.99107 11.4465 8.67851C11.1339 8.36595 10.9583 7.94203 10.9583 7.5V4.16667C10.9583 3.72464 11.1339 3.30072 11.4465 2.98816C11.759 2.67559 12.183 2.5 12.625 2.5H15.9583Z" fill="#D4D6DD"/>
</svg>
