<svg width="40" height="40" viewBox="0 0 40 40" fill="none" xmlns="http://www.w3.org/2000/svg">
<path d="M15.0002 26.6667L13.6252 32.1251C13.5419 32.4862 13.3614 32.7779 13.0836 33.0001C12.8058 33.2223 12.4725 33.3334 12.0836 33.3334C11.5558 33.3334 11.1252 33.1251 10.7919 32.7084C10.4586 32.2917 10.3614 31.8334 10.5002 31.3334L11.6669 26.6667H7.12524C6.56968 26.6667 6.12524 26.4517 5.79191 26.0217C5.45857 25.5917 5.36135 25.1123 5.50024 24.5834C5.58357 24.1945 5.77802 23.889 6.08357 23.6667C6.38913 23.4445 6.73635 23.3334 7.12524 23.3334H12.5002L14.1669 16.6667H9.62524C9.06968 16.6667 8.62524 16.4517 8.29191 16.0217C7.95857 15.5917 7.86135 15.1123 8.00024 14.5834C8.08357 14.1945 8.27802 13.889 8.58357 13.6667C8.88913 13.4445 9.23635 13.3334 9.62524 13.3334H15.0002L16.3752 7.87508C16.4586 7.51397 16.6391 7.2223 16.9169 7.00008C17.1947 6.77786 17.528 6.66675 17.9169 6.66675C18.4447 6.66675 18.8752 6.87508 19.2086 7.29175C19.5419 7.70841 19.6391 8.16675 19.5002 8.66675L18.3336 13.3334H25.0002L26.3752 7.87508C26.4586 7.51397 26.6391 7.2223 26.9169 7.00008C27.1947 6.77786 27.528 6.66675 27.9169 6.66675C28.4447 6.66675 28.8752 6.87508 29.2086 7.29175C29.5419 7.70841 29.6391 8.16675 29.5002 8.66675L28.3336 13.3334H32.8752C33.4308 13.3334 33.8752 13.5484 34.2086 13.9784C34.5419 14.4084 34.6391 14.8879 34.5002 15.4167C34.4169 15.8056 34.2225 16.1112 33.9169 16.3334C33.6114 16.5556 33.2641 16.6667 32.8752 16.6667H27.5002L25.8336 23.3334H30.3752C30.9308 23.3334 31.3752 23.549 31.7086 23.9801C32.0419 24.4112 32.1391 24.8901 32.0002 25.4167C31.9169 25.8056 31.7225 26.1112 31.4169 26.3334C31.1114 26.5556 30.7641 26.6667 30.3752 26.6667H25.0002L23.6252 32.1251C23.5419 32.4862 23.3614 32.7779 23.0836 33.0001C22.8058 33.2223 22.4725 33.3334 22.0836 33.3334C21.5558 33.3334 21.1252 33.1251 20.7919 32.7084C20.4586 32.2917 20.3614 31.8334 20.5002 31.3334L21.6669 26.6667H15.0002ZM15.8336 23.3334H22.5002L24.1669 16.6667H17.5002L15.8336 23.3334Z" fill="#3B606A"/>
</svg>
